<svg xmlns="http://www.w3.org/2000/svg" width="1200" height="800" viewBox="0 0 1200 800">
  <defs>
    <linearGradient id="bg" x1="0" y1="0" x2="1" y2="1">
      <stop offset="0" stop-color="#f6f5f2"/>
      <stop offset="1" stop-color="#d6d3cd"/>
    </linearGradient>
    <radialGradient id="glow" cx="0.32" cy="0.45" r="0.6">
      <stop offset="0" stop-color="#000000" stop-opacity="0.10"/>
      <stop offset="1" stop-color="#000000" stop-opacity="0"/>
    </radialGradient>
    <linearGradient id="gold" x1="0" x2="1">
      <stop offset="0" stop-color="#8a6a2c"/>
      <stop offset="0.5" stop-color="#d4b26a"/>
      <stop offset="1" stop-color="#8a6a2c"/>
    </linearGradient>
    <filter id="grain"><feTurbulence type="fractalNoise" baseFrequency="0.9" numOctaves="2" stitchTiles="stitch"/><feColorMatrix type="saturate" values="0"/></filter>
  </defs>
  <rect width="1200" height="800" fill="url(#bg)"/>
  <rect width="1200" height="800" fill="url(#glow)"/>
  <g stroke="#000000" stroke-opacity="0.09" fill="none" stroke-width="1.2"><line x1="96" y1="160" x2="456" y2="160"/><line x1="96" y1="194" x2="408.00000000000006" y2="194"/><line x1="96" y1="228" x2="360" y2="228"/><line x1="96" y1="262" x2="456" y2="262"/><line x1="96" y1="296" x2="408.00000000000006" y2="296"/><line x1="96" y1="330" x2="360" y2="330"/><line x1="96" y1="364" x2="456" y2="364"/><line x1="96" y1="398" x2="408.00000000000006" y2="398"/><line x1="96" y1="432" x2="360" y2="432"/><rect x="60" y="96" width="456" height="608" rx="6"/></g>
  <g transform="translate(152.00000000000003 168.00000000000003) scale(19.333333333333332)" fill="none" stroke="#111111" stroke-opacity="0.9" stroke-width="0.32" stroke-linecap="round" stroke-linejoin="round">
    <path d="M14.086 18.412A2 2 0 0112.67 19H5v-7.672a2 2 0 01.586-1.414L11.75 3.75a6 6 0 118.49 8.49z" />
  <path d="M16 8 2 22" />
  <path d="M17.488 15H9" />
  </g>
  <rect x="72" y="704" width="160" height="3" fill="url(#gold)"/>
  <rect width="1200" height="800" filter="url(#grain)" opacity="0.07"/>
</svg>